<svg width="64" height="64" viewBox="0 0 64 64" fill="none" xmlns="http://www.w3.org/2000/svg">
<rect width="64" height="64" rx="12" fill="#111827"/>
<path d="M27.1975 27.384C26.6855 26.4453 25.9815 25.7307 25.0855 25.24C24.1895 24.7493 23.1442 24.504 21.9495 24.504C20.6268 24.504 19.4535 24.8027 18.4295 25.4C17.4055 25.9973 16.6055 26.8507 16.0295 27.96C15.4535 29.0693 15.1655 30.3493 15.1655 31.8C15.1655 33.2933 15.4535 34.5947 16.0295 35.704C16.6268 36.8133 17.4482 37.6667 18.4935 38.264C19.5388 38.8613 20.7548 39.16 22.1415 39.16C23.8482 39.16 25.2455 38.712 26.3335 37.816C27.4215 36.8987 28.1362 35.6293 28.4775 34.008H20.7975V30.584H32.8935V34.488C32.5948 36.0453 31.9548 37.4853 30.9735 38.808C29.9922 40.1307 28.7228 41.1973 27.1655 42.008C25.6295 42.7973 23.9015 43.192 21.9815 43.192C19.8268 43.192 17.8748 42.712 16.1255 41.752C14.3975 40.7707 13.0322 39.416 12.0295 37.688C11.0482 35.96 10.5575 33.9973 10.5575 31.8C10.5575 29.6027 11.0482 27.64 12.0295 25.912C13.0322 24.1627 14.3975 22.808 16.1255 21.848C17.8748 20.8667 19.8162 20.376 21.9495 20.376C24.4668 20.376 26.6535 20.9947 28.5095 22.232C30.3655 23.448 31.6455 25.1653 32.3495 27.384H27.1975ZM48.88 31.544C50.1387 31.7787 51.1733 32.408 51.984 33.432C52.7947 34.456 53.2 35.6293 53.2 36.952C53.2 38.1467 52.9013 39.2027 52.304 40.12C51.728 41.016 50.8853 41.72 49.776 42.232C48.6667 42.744 47.3547 43 45.84 43H36.208V20.664H45.424C46.9387 20.664 48.24 20.9093 49.328 21.4C50.4373 21.8907 51.2693 22.5733 51.824 23.448C52.4 24.3227 52.688 25.3147 52.688 26.424C52.688 27.7253 52.336 28.8133 51.632 29.688C50.9493 30.5627 50.032 31.1813 48.88 31.544ZM40.688 29.88H44.784C45.8507 29.88 46.672 29.6453 47.248 29.176C47.824 28.6853 48.112 27.992 48.112 27.096C48.112 26.2 47.824 25.5067 47.248 25.016C46.672 24.5253 45.8507 24.28 44.784 24.28H40.688V29.88ZM45.2 39.352C46.288 39.352 47.1307 39.096 47.728 38.584C48.3467 38.072 48.656 37.3467 48.656 36.408C48.656 35.448 48.336 34.7013 47.696 34.168C47.056 33.6133 46.192 33.336 45.104 33.336H40.688V39.352H45.2Z" fill="#38BDF8"/>
</svg>
